# xmcd
#
# Track frame offsets:
#	150
#	18434
#	35901
#	53548
#	72461
#	98891
#	116432
#	136714
#	161616
#	181146
#	203199
#
# Disc length: 2989
#
# Revision: 1
# Processed by: cddbd v1.5.1PL0 Copyright (c) Steve Scherf et al.
# Submitted via: dBpowerAMP V4.0
# Normalized: r0:TDELIM( - )
#
DISCID=910bab0b
DTITLE=Jennifer Lopez - J to Tha L-O!: The Remixes
DYEAR=2002
DGENRE=Club
TTITLE0=Jennifer Lopez feat. Fat Joe - Love Don't Cost a Thing (RJ Schoolyard Mix)
TTITLE1=Jennifer Lopez feat. Ja Rule and Caddillac Tah - Ain't It Funny (Murder Remix)
TTITLE2=Jennifer Lopez feat. 50 Cent - I'm Gonna Be Alright (Track Masters Remix)
TTITLE3=Jennifer Lopez feat Ja rule - I'm Real (Murder Remix)
TTITLE4=Jennifer Lopez - Walking On Sunshine (Metro Mix)
TTITLE5=Jennifer Lopez - If You Had My Love (Dark Child Master Mix)
TTITLE6=Jennifer Lopez feat. P. Diddy and G. Dep - Feelin' So Good (Bad Boy Remix)
TTITLE7=Jennifer Lopez - Let's Get Loud (Pablo Flores Remix)
TTITLE8=Jennifer Lopez - Play (Sack International Remix)
TTITLE9=Jennifer Lopez - Waiting for Tonight (Hex's Momentous Radio Mix)
TTITLE10=Jennifer Lopez - Alive
EXTD=Jennifer Lopez - J to Tha L-O!: The Remixes
EXTT0=
EXTT1=
EXTT2=
EXTT3=
EXTT4=
EXTT5=
EXTT6=
EXTT7=
EXTT8=
EXTT9=
EXTT10=
PLAYORDER=
